# xmcd CD database file
#
# Track frame offsets:
#	150
#	25949
#	53729
#	72356
#	87719
#	114088
#	144832
#	169437
#	194308
#	225267
#
# Disc length: 3311 seconds
#
# Revision: 2
# Processed by: cddbd v1.4PL0 Copyright (c) Steve Scherf et al.
# Submitted via: CDex 1.51
#
DISCID=7f0ced0a
DTITLE=Kelly Joe Phelps - Sky Like a Broken Clock
DYEAR=2001
DGENRE=Folk
TTITLE0=Taylor John
TTITLE1=Clementine
TTITLE2=Sally Ruby
TTITLE3=Beggar's Oil
TTITLE4=Flash cards
TTITLE5=Gold tooth
TTITLE6=Tommy
TTITLE7=Fleashine
TTITLE8=Mr. My Go
TTITLE9=Worn out
EXTD=YEAR: 2001
EXTT0=
EXTT1=
EXTT2=
EXTT3=
EXTT4=
EXTT5=
EXTT6=
EXTT7=
EXTT8=
EXTT9=
PLAYORDER=
